<svg version="1.1" xmlns="http://www.w3.org/2000/svg" xmlns:xlink="http://www.w3.org/1999/xlink" width="908" height="772"><defs/><g><g transform="translate(2,2) scale(1,1)"><path fill="#C0C0C0" stroke="none" d="M 23 25 L 892 25 L 892 766 L 23 766" opacity="0.2"/></g><g transform="translate(2,2) scale(1,1)"><path fill="#C0C0C0" stroke="none" d="M 23 25 L 33 15 L 902 15 L 892 25" opacity="0.2"/></g><g transform="translate(2,2) scale(1,1)"><path fill="#C0C0C0" stroke="none" d="M 902 15 L 892 25 L 892 766 L 902 756" opacity="0.2"/></g><g transform="translate(2,2) scale(1,1)"><path fill="#ffffff" stroke="none" d="M 16 18 L 885 18 L 885 759 L 16 759"/></g><g transform="translate(2,2) scale(1,1)"><path fill="#ffffff" stroke="none" d="M 16 18 L 26 8 L 895 8 L 885 18"/></g><g transform="translate(2,2) scale(1,1)"><path fill="#ffffff" stroke="none" d="M 895 8 L 885 18 L 885 759 L 895 749"/></g><g transform="translate(2,2) scale(1,1)"><path fill="none" stroke="#000000" d="M 16 18 L 885 18 L 885 759 L 16 759 L 16 18" stroke-miterlimit="10"/></g><g transform="translate(2,2) scale(1,1)"><path fill="none" stroke="#000000" d="M 16 18 L 26 8 L 895 8 L 885 18 L 16 18" stroke-miterlimit="10"/></g><g transform="translate(2,2) scale(1,1)"><path fill="none" stroke="#000000" d="M 895 8 L 885 18 L 885 759 L 895 749 L 895 8" stroke-miterlimit="10"/></g><g transform="translate(2,2) scale(1,1)"><g><path fill="none" stroke="none"/><text fill="#000000" stroke="none" font-family="Arial" font-size="13px" font-style="normal" font-weight="bold" text-decoration="none" x="430.405029296875" y="37.5">Xampp</text></g></g><g transform="translate(2,2) scale(1,1)"><path fill="#C0C0C0" stroke="none" d="M 282.2681640625 591 L 309.7081640625 591 L 321.46816406249997 602.76 L 321.46816406249997 640 L 282.2681640625 640" opacity="0.2"/></g><g transform="translate(2,2) scale(1,1)"><path fill="#ffffff" stroke="none" d="M 275.2681640625 584 L 302.70816406250003 584 L 314.4681640625 595.76 L 314.4681640625 633 L 275.2681640625 633"/></g><g transform="translate(2,2) scale(1,1)"><path fill="none" stroke="#000000" d="M 275.2681640625 584 L 302.70816406250003 584 L 314.4681640625 595.76 L 314.4681640625 633 L 275.2681640625 633 L 275.2681640625 584" stroke-miterlimit="10"/></g><g transform="translate(2,2) scale(1,1)"><path fill="none" stroke="#000000" d="M 302.70816406250003 584 L 302.70816406250003 595.76 L 314.4681640625 595.76 L 302.70816406250003 584" stroke-miterlimit="10"/></g><g transform="translate(2,2) scale(1,1)"><g><path fill="none" stroke="none"/><text fill="#000000" stroke="none" font-family="Arial" font-size="13px" font-style="normal" font-weight="bold" text-decoration="none" x="271.0263671875" y="652.5">Artifact1</text></g></g><g transform="translate(2,2) scale(1,1)"><path fill="#C0C0C0" stroke="none" d="M 650.2681640625 607 L 677.7081640625 607 L 689.4681640625 618.76 L 689.4681640625 656 L 650.2681640625 656" opacity="0.2"/></g><g transform="translate(2,2) scale(1,1)"><path fill="#ffffff" stroke="none" d="M 643.2681640625 600 L 670.7081640625 600 L 682.4681640625 611.76 L 682.4681640625 649 L 643.2681640625 649"/></g><g transform="translate(2,2) scale(1,1)"><path fill="none" stroke="#000000" d="M 643.2681640625 600 L 670.7081640625 600 L 682.4681640625 611.76 L 682.4681640625 649 L 643.2681640625 649 L 643.2681640625 600" stroke-miterlimit="10"/></g><g transform="translate(2,2) scale(1,1)"><path fill="none" stroke="#000000" d="M 670.7081640625 600 L 670.7081640625 611.76 L 682.4681640625 611.76 L 670.7081640625 600" stroke-miterlimit="10"/></g><g transform="translate(2,2) scale(1,1)"><g><path fill="none" stroke="none"/><text fill="#000000" stroke="none" font-family="Arial" font-size="13px" font-style="normal" font-weight="bold" text-decoration="none" x="639.0263671875" y="668.5">Artifact2</text></g></g><g transform="translate(2,2) scale(1,1)"><path fill="none" stroke="#000000" d="M 320 583 L 456 384" stroke-miterlimit="10" stroke-dasharray="3"/></g><g transform="translate(2,2) scale(1,1)"><path fill="none" stroke="#000000" d="M 453.74126649938876 394.7655990531515 L 456 384 L 446.79040613080565 390.01526231884344" stroke-miterlimit="10"/></g><g transform="translate(2,2) scale(1,1)"><path fill="none" stroke="#000000" d="M 631 599 L 456 384" stroke-miterlimit="10" stroke-dasharray="3"/></g><g transform="translate(2,2) scale(1,1)"><path fill="none" stroke="#000000" d="M 465.6801479940613 389.2244363153426 L 456 384 L 459.15066394303415 394.53913263594615" stroke-miterlimit="10"/></g><g transform="translate(2,2) scale(1,1)"><path fill="none" stroke="#000000" d="M 320 583 L 456 384" stroke-miterlimit="10" stroke-dasharray="3"/></g><g transform="translate(2,2) scale(1,1)"><path fill="none" stroke="#000000" d="M 453.74126649938876 394.7655990531515 L 456 384 L 446.79040613080565 390.01526231884344" stroke-miterlimit="10"/></g><g transform="translate(2,2) scale(1,1)"><g><path fill="none" stroke="none"/><text fill="#000000" stroke="none" font-family="Arial" font-size="13px" font-style="normal" font-weight="normal" text-decoration="none" x="336.5" y="472.5">«deploy»</text></g></g><g transform="translate(2,2) scale(1,1)"><path fill="none" stroke="#000000" d="M 631 599 L 456 384" stroke-miterlimit="10" stroke-dasharray="3"/></g><g transform="translate(2,2) scale(1,1)"><path fill="none" stroke="#000000" d="M 465.6801479940613 389.2244363153426 L 456 384 L 459.15066394303415 394.53913263594615" stroke-miterlimit="10"/></g><g transform="translate(2,2) scale(1,1)"><g><path fill="none" stroke="none"/><text fill="#000000" stroke="none" font-family="Arial" font-size="13px" font-style="normal" font-weight="normal" text-decoration="none" x="492.5" y="515.5">«deploy»</text></g></g><g transform="translate(2,2) scale(1,1)"><path fill="#C0C0C0" stroke="none" d="M 31 65 L 876 65 L 876 742 L 31 742" opacity="0.2"/></g><g transform="translate(2,2) scale(1,1)"><path fill="#C0C0C0" stroke="none" d="M 31 65 L 41 55 L 886 55 L 876 65" opacity="0.2"/></g><g transform="translate(2,2) scale(1,1)"><path fill="#C0C0C0" stroke="none" d="M 886 55 L 876 65 L 876 742 L 886 732" opacity="0.2"/></g><g transform="translate(2,2) scale(1,1)"><path fill="#ffffff" stroke="none" d="M 24 58 L 869 58 L 869 735 L 24 735"/></g><g transform="translate(2,2) scale(1,1)"><path fill="#ffffff" stroke="none" d="M 24 58 L 34 48 L 879 48 L 869 58"/></g><g transform="translate(2,2) scale(1,1)"><path fill="#ffffff" stroke="none" d="M 879 48 L 869 58 L 869 735 L 879 725"/></g><g transform="translate(2,2) scale(1,1)"><path fill="none" stroke="#000000" d="M 24 58 L 869 58 L 869 735 L 24 735 L 24 58" stroke-miterlimit="10"/></g><g transform="translate(2,2) scale(1,1)"><path fill="none" stroke="#000000" d="M 24 58 L 34 48 L 879 48 L 869 58 L 24 58" stroke-miterlimit="10"/></g><g transform="translate(2,2) scale(1,1)"><path fill="none" stroke="#000000" d="M 879 48 L 869 58 L 869 735 L 879 725 L 879 48" stroke-miterlimit="10"/></g><g transform="translate(2,2) scale(1,1)"><g><path fill="none" stroke="none"/><text fill="#000000" stroke="none" font-family="Arial" font-size="13px" font-style="normal" font-weight="bold" text-decoration="none" x="406.16552734375" y="77.5">SearchEngine</text></g></g><g transform="translate(2,2) scale(1,1)"><path fill="#C0C0C0" stroke="none" d="M 39 81 L 86.72998046875 81 L 86.72998046875 114 L 39 114" opacity="0.2"/></g><g transform="translate(2,2) scale(1,1)"><path fill="#C0C0C0" stroke="none" d="M 39 81 L 49 71 L 96.72998046875 71 L 86.72998046875 81" opacity="0.2"/></g><g transform="translate(2,2) scale(1,1)"><path fill="#C0C0C0" stroke="none" d="M 96.72998046875 71 L 86.72998046875 81 L 86.72998046875 114 L 96.72998046875 104" opacity="0.2"/></g><g transform="translate(2,2) scale(1,1)"><path fill="#ffffff" stroke="none" d="M 32 74 L 79.72998046875 74 L 79.72998046875 107 L 32 107"/></g><g transform="translate(2,2) scale(1,1)"><path fill="#ffffff" stroke="none" d="M 32 74 L 42 64 L 89.72998046875 64 L 79.72998046875 74"/></g><g transform="translate(2,2) scale(1,1)"><path fill="#ffffff" stroke="none" d="M 89.72998046875 64 L 79.72998046875 74 L 79.72998046875 107 L 89.72998046875 97"/></g><g transform="translate(2,2) scale(1,1)"><path fill="none" stroke="#000000" d="M 32 74 L 79.72998046875 74 L 79.72998046875 107 L 32 107 L 32 74" stroke-miterlimit="10"/></g><g transform="translate(2,2) scale(1,1)"><path fill="none" stroke="#000000" d="M 32 74 L 42 64 L 89.72998046875 64 L 79.72998046875 74 L 32 74" stroke-miterlimit="10"/></g><g transform="translate(2,2) scale(1,1)"><path fill="none" stroke="#000000" d="M 89.72998046875 64 L 79.72998046875 74 L 79.72998046875 107 L 89.72998046875 97 L 89.72998046875 64" stroke-miterlimit="10"/></g><g transform="translate(2,2) scale(1,1)"><g><path fill="none" stroke="none"/><text fill="#000000" stroke="none" font-family="Arial" font-size="13px" font-style="normal" font-weight="bold" text-decoration="none" x="47.69091796875" y="93.5">api</text></g></g><g transform="translate(2,2) scale(1,1)"><path fill="#C0C0C0" stroke="none" d="M 31 297 L 78.72998046875 297 L 78.72998046875 330 L 31 330" opacity="0.2"/></g><g transform="translate(2,2) scale(1,1)"><path fill="#C0C0C0" stroke="none" d="M 31 297 L 41 287 L 88.72998046875 287 L 78.72998046875 297" opacity="0.2"/></g><g transform="translate(2,2) scale(1,1)"><path fill="#C0C0C0" stroke="none" d="M 88.72998046875 287 L 78.72998046875 297 L 78.72998046875 330 L 88.72998046875 320" opacity="0.2"/></g><g transform="translate(2,2) scale(1,1)"><path fill="#ffffff" stroke="none" d="M 24 290 L 71.72998046875 290 L 71.72998046875 323 L 24 323"/></g><g transform="translate(2,2) scale(1,1)"><path fill="#ffffff" stroke="none" d="M 24 290 L 34 280 L 81.72998046875 280 L 71.72998046875 290"/></g><g transform="translate(2,2) scale(1,1)"><path fill="#ffffff" stroke="none" d="M 81.72998046875 280 L 71.72998046875 290 L 71.72998046875 323 L 81.72998046875 313"/></g><g transform="translate(2,2) scale(1,1)"><path fill="none" stroke="#000000" d="M 24 290 L 71.72998046875 290 L 71.72998046875 323 L 24 323 L 24 290" stroke-miterlimit="10"/></g><g transform="translate(2,2) scale(1,1)"><path fill="none" stroke="#000000" d="M 24 290 L 34 280 L 81.72998046875 280 L 71.72998046875 290 L 24 290" stroke-miterlimit="10"/></g><g transform="translate(2,2) scale(1,1)"><path fill="none" stroke="#000000" d="M 81.72998046875 280 L 71.72998046875 290 L 71.72998046875 323 L 81.72998046875 313 L 81.72998046875 280" stroke-miterlimit="10"/></g><g transform="translate(2,2) scale(1,1)"><g><path fill="none" stroke="none"/><text fill="#000000" stroke="none" font-family="Arial" font-size="13px" font-style="normal" font-weight="bold" text-decoration="none" x="41.86181640625" y="309.5">lib</text></g></g><g transform="translate(2,2) scale(1,1)"><path fill="#C0C0C0" stroke="none" d="M 39 425 L 86.72998046875 425 L 86.72998046875 458 L 39 458" opacity="0.2"/></g><g transform="translate(2,2) scale(1,1)"><path fill="#C0C0C0" stroke="none" d="M 39 425 L 49 415 L 96.72998046875 415 L 86.72998046875 425" opacity="0.2"/></g><g transform="translate(2,2) scale(1,1)"><path fill="#C0C0C0" stroke="none" d="M 96.72998046875 415 L 86.72998046875 425 L 86.72998046875 458 L 96.72998046875 448" opacity="0.2"/></g><g transform="translate(2,2) scale(1,1)"><path fill="#ffffff" stroke="none" d="M 32 418 L 79.72998046875 418 L 79.72998046875 451 L 32 451"/></g><g transform="translate(2,2) scale(1,1)"><path fill="#ffffff" stroke="none" d="M 32 418 L 42 408 L 89.72998046875 408 L 79.72998046875 418"/></g><g transform="translate(2,2) scale(1,1)"><path fill="#ffffff" stroke="none" d="M 89.72998046875 408 L 79.72998046875 418 L 79.72998046875 451 L 89.72998046875 441"/></g><g transform="translate(2,2) scale(1,1)"><path fill="none" stroke="#000000" d="M 32 418 L 79.72998046875 418 L 79.72998046875 451 L 32 451 L 32 418" stroke-miterlimit="10"/></g><g transform="translate(2,2) scale(1,1)"><path fill="none" stroke="#000000" d="M 32 418 L 42 408 L 89.72998046875 408 L 79.72998046875 418 L 32 418" stroke-miterlimit="10"/></g><g transform="translate(2,2) scale(1,1)"><path fill="none" stroke="#000000" d="M 89.72998046875 408 L 79.72998046875 418 L 79.72998046875 451 L 89.72998046875 441 L 89.72998046875 408" stroke-miterlimit="10"/></g><g transform="translate(2,2) scale(1,1)"><g><path fill="none" stroke="none"/><text fill="#000000" stroke="none" font-family="Arial" font-size="13px" font-style="normal" font-weight="bold" text-decoration="none" x="39.3818359375" y="437.5">public</text></g></g><g transform="translate(2,2) scale(1,1)"><path fill="#C0C0C0" stroke="none" d="M 31 497 L 860 497 L 860 734 L 31 734" opacity="0.2"/></g><g transform="translate(2,2) scale(1,1)"><path fill="#C0C0C0" stroke="none" d="M 31 497 L 41 487 L 870 487 L 860 497" opacity="0.2"/></g><g transform="translate(2,2) scale(1,1)"><path fill="#C0C0C0" stroke="none" d="M 870 487 L 860 497 L 860 734 L 870 724" opacity="0.2"/></g><g transform="translate(2,2) scale(1,1)"><path fill="#ffffff" stroke="none" d="M 24 490 L 853 490 L 853 727 L 24 727"/></g><g transform="translate(2,2) scale(1,1)"><path fill="#ffffff" stroke="none" d="M 24 490 L 34 480 L 863 480 L 853 490"/></g><g transform="translate(2,2) scale(1,1)"><path fill="#ffffff" stroke="none" d="M 863 480 L 853 490 L 853 727 L 863 717"/></g><g transform="translate(2,2) scale(1,1)"><path fill="none" stroke="#000000" d="M 24 490 L 853 490 L 853 727 L 24 727 L 24 490" stroke-miterlimit="10"/></g><g transform="translate(2,2) scale(1,1)"><path fill="none" stroke="#000000" d="M 24 490 L 34 480 L 863 480 L 853 490 L 24 490" stroke-miterlimit="10"/></g><g transform="translate(2,2) scale(1,1)"><path fill="none" stroke="#000000" d="M 863 480 L 853 490 L 853 727 L 863 717 L 863 480" stroke-miterlimit="10"/></g><g transform="translate(2,2) scale(1,1)"><g><path fill="none" stroke="none"/><text fill="#000000" stroke="none" font-family="Arial" font-size="13px" font-style="normal" font-weight="bold" text-decoration="none" x="419.12548828125" y="509.5">vendor</text></g></g><g transform="translate(2,2) scale(1,1)"><path fill="#C0C0C0" stroke="none" d="M 135 97 L 202.95361328125 97 L 202.95361328125 130 L 135 130" opacity="0.2"/></g><g transform="translate(2,2) scale(1,1)"><path fill="#C0C0C0" stroke="none" d="M 135 97 L 145 87 L 212.95361328125 87 L 202.95361328125 97" opacity="0.2"/></g><g transform="translate(2,2) scale(1,1)"><path fill="#C0C0C0" stroke="none" d="M 212.95361328125 87 L 202.95361328125 97 L 202.95361328125 130 L 212.95361328125 120" opacity="0.2"/></g><g transform="translate(2,2) scale(1,1)"><path fill="#ffffff" stroke="none" d="M 128 90 L 195.95361328125 90 L 195.95361328125 123 L 128 123"/></g><g transform="translate(2,2) scale(1,1)"><path fill="#ffffff" stroke="none" d="M 128 90 L 138 80 L 205.95361328125 80 L 195.95361328125 90"/></g><g transform="translate(2,2) scale(1,1)"><path fill="#ffffff" stroke="none" d="M 205.95361328125 80 L 195.95361328125 90 L 195.95361328125 123 L 205.95361328125 113"/></g><g transform="translate(2,2) scale(1,1)"><path fill="none" stroke="#000000" d="M 128 90 L 195.95361328125 90 L 195.95361328125 123 L 128 123 L 128 90" stroke-miterlimit="10"/></g><g transform="translate(2,2) scale(1,1)"><path fill="none" stroke="#000000" d="M 128 90 L 138 80 L 205.95361328125 80 L 195.95361328125 90 L 128 90" stroke-miterlimit="10"/></g><g transform="translate(2,2) scale(1,1)"><path fill="none" stroke="#000000" d="M 205.95361328125 80 L 195.95361328125 90 L 195.95361328125 123 L 205.95361328125 113 L 205.95361328125 80" stroke-miterlimit="10"/></g><g transform="translate(2,2) scale(1,1)"><g><path fill="none" stroke="none"/><text fill="#000000" stroke="none" font-family="Arial" font-size="13px" font-style="normal" font-weight="bold" text-decoration="none" x="135.74365234375" y="109.5">controller</text></g></g><g transform="translate(2,2) scale(1,1)"><path fill="#C0C0C0" stroke="none" d="M 135 145 L 182.72998046875 145 L 182.72998046875 178 L 135 178" opacity="0.2"/></g><g transform="translate(2,2) scale(1,1)"><path fill="#C0C0C0" stroke="none" d="M 135 145 L 145 135 L 192.72998046875 135 L 182.72998046875 145" opacity="0.2"/></g><g transform="translate(2,2) scale(1,1)"><path fill="#C0C0C0" stroke="none" d="M 192.72998046875 135 L 182.72998046875 145 L 182.72998046875 178 L 192.72998046875 168" opacity="0.2"/></g><g transform="translate(2,2) scale(1,1)"><path fill="#ffffff" stroke="none" d="M 128 138 L 175.72998046875 138 L 175.72998046875 171 L 128 171"/></g><g transform="translate(2,2) scale(1,1)"><path fill="#ffffff" stroke="none" d="M 128 138 L 138 128 L 185.72998046875 128 L 175.72998046875 138"/></g><g transform="translate(2,2) scale(1,1)"><path fill="#ffffff" stroke="none" d="M 185.72998046875 128 L 175.72998046875 138 L 175.72998046875 171 L 185.72998046875 161"/></g><g transform="translate(2,2) scale(1,1)"><path fill="none" stroke="#000000" d="M 128 138 L 175.72998046875 138 L 175.72998046875 171 L 128 171 L 128 138" stroke-miterlimit="10"/></g><g transform="translate(2,2) scale(1,1)"><path fill="none" stroke="#000000" d="M 128 138 L 138 128 L 185.72998046875 128 L 175.72998046875 138 L 128 138" stroke-miterlimit="10"/></g><g transform="translate(2,2) scale(1,1)"><path fill="none" stroke="#000000" d="M 185.72998046875 128 L 175.72998046875 138 L 175.72998046875 171 L 185.72998046875 161 L 185.72998046875 128" stroke-miterlimit="10"/></g><g transform="translate(2,2) scale(1,1)"><g><path fill="none" stroke="none"/><text fill="#000000" stroke="none" font-family="Arial" font-size="13px" font-style="normal" font-weight="bold" text-decoration="none" x="134.661376953125" y="157.5">model</text></g></g><g transform="translate(2,2) scale(1,1)"><path fill="#C0C0C0" stroke="none" d="M 127 193 L 174.72998046875 193 L 174.72998046875 226 L 127 226" opacity="0.2"/></g><g transform="translate(2,2) scale(1,1)"><path fill="#C0C0C0" stroke="none" d="M 127 193 L 137 183 L 184.72998046875 183 L 174.72998046875 193" opacity="0.2"/></g><g transform="translate(2,2) scale(1,1)"><path fill="#C0C0C0" stroke="none" d="M 184.72998046875 183 L 174.72998046875 193 L 174.72998046875 226 L 184.72998046875 216" opacity="0.2"/></g><g transform="translate(2,2) scale(1,1)"><path fill="#ffffff" stroke="none" d="M 120 186 L 167.72998046875 186 L 167.72998046875 219 L 120 219"/></g><g transform="translate(2,2) scale(1,1)"><path fill="#ffffff" stroke="none" d="M 120 186 L 130 176 L 177.72998046875 176 L 167.72998046875 186"/></g><g transform="translate(2,2) scale(1,1)"><path fill="#ffffff" stroke="none" d="M 177.72998046875 176 L 167.72998046875 186 L 167.72998046875 219 L 177.72998046875 209"/></g><g transform="translate(2,2) scale(1,1)"><path fill="none" stroke="#000000" d="M 120 186 L 167.72998046875 186 L 167.72998046875 219 L 120 219 L 120 186" stroke-miterlimit="10"/></g><g transform="translate(2,2) scale(1,1)"><path fill="none" stroke="#000000" d="M 120 186 L 130 176 L 177.72998046875 176 L 167.72998046875 186 L 120 186" stroke-miterlimit="10"/></g><g transform="translate(2,2) scale(1,1)"><path fill="none" stroke="#000000" d="M 177.72998046875 176 L 167.72998046875 186 L 167.72998046875 219 L 177.72998046875 209 L 177.72998046875 176" stroke-miterlimit="10"/></g><g transform="translate(2,2) scale(1,1)"><g><path fill="none" stroke="none"/><text fill="#000000" stroke="none" font-family="Arial" font-size="13px" font-style="normal" font-weight="bold" text-decoration="none" x="131.36181640625" y="205.5">view</text></g></g><g transform="translate(2,2) scale(1,1)"><path fill="none" stroke="#000000" d="M 127 96 L 92 91" stroke-miterlimit="10" stroke-dasharray="3"/></g><g transform="translate(2,2) scale(1,1)"><path fill="none" stroke="#000000" d="M 102.65585053970892 88.27000929023829 L 92 91 L 101.46521911938729 96.60442923248974" stroke-miterlimit="10"/></g><g transform="translate(2,2) scale(1,1)"><g><path fill="none" stroke="none"/><text fill="#000000" stroke="none" font-family="Arial" font-size="13px" font-style="normal" font-weight="normal" text-decoration="none" x="78.5" y="128.5">«deploy»</text></g></g><g transform="translate(2,2) scale(1,1)"><path fill="none" stroke="#000000" d="M 119 199 L 64 200 L 62 109" stroke-miterlimit="10" stroke-dasharray="3"/></g><g transform="translate(2,2) scale(1,1)"><path fill="none" stroke="#000000" d="M 66.43180302206352 119.06772675302766 L 62 109 L 58.014800111585075 119.25271582798322" stroke-miterlimit="10"/></g><g transform="translate(2,2) scale(1,1)"><g><path fill="none" stroke="none"/><text fill="#000000" stroke="none" font-family="Arial" font-size="13px" font-style="normal" font-weight="normal" text-decoration="none" x="7.5" y="206.5">«deploy»</text></g></g><g transform="translate(2,2) scale(1,1)"><path fill="none" stroke="#000000" d="M 127 151 L 64 152 L 62 109" stroke-miterlimit="10" stroke-dasharray="3"/></g><g transform="translate(2,2) scale(1,1)"><path fill="none" stroke="#000000" d="M 66.677143934236 118.95611995801775 L 62 109 L 58.267200255862726 119.34728012910489" stroke-miterlimit="10"/></g><g transform="translate(2,2) scale(1,1)"><g><path fill="none" stroke="none"/><text fill="#000000" stroke="none" font-family="Arial" font-size="13px" font-style="normal" font-weight="normal" text-decoration="none" x="7.5" y="159.5">«deploy»</text></g></g><g transform="translate(2,2) scale(1,1)"><path fill="#C0C0C0" stroke="none" d="M 303.054052734375 79 L 330.494052734375 79 L 342.25405273437497 90.75999999999999 L 342.25405273437497 128 L 303.054052734375 128" opacity="0.2"/></g><g transform="translate(2,2) scale(1,1)"><path fill="#ffffff" stroke="none" d="M 296.054052734375 72 L 323.49405273437503 72 L 335.254052734375 83.76000000000002 L 335.254052734375 121 L 296.054052734375 121"/></g><g transform="translate(2,2) scale(1,1)"><path fill="none" stroke="#000000" d="M 296.054052734375 72 L 323.49405273437503 72 L 335.254052734375 83.76000000000002 L 335.254052734375 121 L 296.054052734375 121 L 296.054052734375 72" stroke-miterlimit="10"/></g><g transform="translate(2,2) scale(1,1)"><path fill="none" stroke="#000000" d="M 323.49405273437503 72 L 323.49405273437503 83.76000000000002 L 335.254052734375 83.76000000000002 L 323.49405273437503 72" stroke-miterlimit="10"/></g><g transform="translate(2,2) scale(1,1)"><g><path fill="none" stroke="none"/><text fill="#000000" stroke="none" font-family="Arial" font-size="13px" font-style="normal" font-weight="bold" text-decoration="none" x="249.530517578125" y="140.5">PackageController.php</text></g></g><g transform="translate(2,2) scale(1,1)"><path fill="#C0C0C0" stroke="none" d="M 594.77451171875 71 L 622.21451171875 71 L 633.97451171875 82.76000000000002 L 633.97451171875 120 L 594.77451171875 120" opacity="0.2"/></g><g transform="translate(2,2) scale(1,1)"><path fill="#ffffff" stroke="none" d="M 587.77451171875 64 L 615.21451171875 64 L 626.97451171875 75.76000000000002 L 626.97451171875 113 L 587.77451171875 113"/></g><g transform="translate(2,2) scale(1,1)"><path fill="none" stroke="#000000" d="M 587.77451171875 64 L 615.21451171875 64 L 626.97451171875 75.76000000000002 L 626.97451171875 113 L 587.77451171875 113 L 587.77451171875 64" stroke-miterlimit="10"/></g><g transform="translate(2,2) scale(1,1)"><path fill="none" stroke="#000000" d="M 615.21451171875 64 L 615.21451171875 75.76000000000002 L 626.97451171875 75.76000000000002 L 615.21451171875 64" stroke-miterlimit="10"/></g><g transform="translate(2,2) scale(1,1)"><g><path fill="none" stroke="none"/><text fill="#000000" stroke="none" font-family="Arial" font-size="13px" font-style="normal" font-weight="bold" text-decoration="none" x="551.724609375" y="132.5">PackageModel.php</text></g></g><g transform="translate(2,2) scale(1,1)"><path fill="#C0C0C0" stroke="none" d="M 749.869482421875 87 L 777.309482421875 87 L 789.069482421875 98.76000000000002 L 789.069482421875 136 L 749.869482421875 136" opacity="0.2"/></g><g transform="translate(2,2) scale(1,1)"><path fill="#ffffff" stroke="none" d="M 742.869482421875 80 L 770.309482421875 80 L 782.069482421875 91.76000000000002 L 782.069482421875 129 L 742.869482421875 129"/></g><g transform="translate(2,2) scale(1,1)"><path fill="none" stroke="#000000" d="M 742.869482421875 80 L 770.309482421875 80 L 782.069482421875 91.76000000000002 L 782.069482421875 129 L 742.869482421875 129 L 742.869482421875 80" stroke-miterlimit="10"/></g><g transform="translate(2,2) scale(1,1)"><path fill="none" stroke="#000000" d="M 770.309482421875 80 L 770.309482421875 91.76000000000002 L 782.069482421875 91.76000000000002 L 770.309482421875 80" stroke-miterlimit="10"/></g><g transform="translate(2,2) scale(1,1)"><g><path fill="none" stroke="none"/><text fill="#000000" stroke="none" font-family="Arial" font-size="13px" font-style="normal" font-weight="bold" text-decoration="none" x="681.52734375" y="148.5">PackageModelInterface.php</text></g></g><g transform="translate(2,2) scale(1,1)"><path fill="#C0C0C0" stroke="none" d="M 286.810400390625 207 L 314.250400390625 207 L 326.01040039062497 218.76 L 326.01040039062497 256 L 286.810400390625 256" opacity="0.2"/></g><g transform="translate(2,2) scale(1,1)"><path fill="#ffffff" stroke="none" d="M 279.810400390625 200 L 307.25040039062503 200 L 319.010400390625 211.76000000000002 L 319.010400390625 249 L 279.810400390625 249"/></g><g transform="translate(2,2) scale(1,1)"><path fill="none" stroke="#000000" d="M 279.810400390625 200 L 307.25040039062503 200 L 319.010400390625 211.76000000000002 L 319.010400390625 249 L 279.810400390625 249 L 279.810400390625 200" stroke-miterlimit="10"/></g><g transform="translate(2,2) scale(1,1)"><path fill="none" stroke="#000000" d="M 307.25040039062503 200 L 307.25040039062503 211.76000000000002 L 319.010400390625 211.76000000000002 L 307.25040039062503 200" stroke-miterlimit="10"/></g><g transform="translate(2,2) scale(1,1)"><g><path fill="none" stroke="none"/><text fill="#000000" stroke="none" font-family="Arial" font-size="13px" font-style="normal" font-weight="bold" text-decoration="none" x="247.37548828125" y="268.5">PackageView.php</text></g></g><g transform="translate(2,2) scale(1,1)"><path fill="none" stroke="#000000" d="M 239 221 L 180 206" stroke-miterlimit="10" stroke-dasharray="3"/></g><g transform="translate(2,2) scale(1,1)"><path fill="none" stroke="#000000" d="M 190.88656469939244 204.42433853701294 L 180 206 L 188.81212462809896 212.58380281743402" stroke-miterlimit="10"/></g><g transform="translate(2,2) scale(1,1)"><g><path fill="none" stroke="none"/><text fill="#000000" stroke="none" font-family="Arial" font-size="13px" font-style="normal" font-weight="normal" text-decoration="none" x="174.5" y="248.5">«deploy»</text></g></g><g transform="translate(2,2) scale(1,1)"><path fill="none" stroke="#000000" d="M 239 105 L 208 104" stroke-miterlimit="10" stroke-dasharray="3"/></g><g transform="translate(2,2) scale(1,1)"><path fill="none" stroke="#000000" d="M 218.29311172831143 100.12032849992458 L 208 104 L 218.02167112907932 108.53498707612029" stroke-miterlimit="10"/></g><g transform="translate(2,2) scale(1,1)"><g><path fill="none" stroke="none"/><text fill="#000000" stroke="none" font-family="Arial" font-size="13px" font-style="normal" font-weight="normal" text-decoration="none" x="195.5" y="140.5">«deploy»</text></g></g><g transform="translate(2,2) scale(1,1)"><path fill="none" stroke="#000000" d="M 607 139 L 608 192 L 400 192 L 188 155" stroke-miterlimit="10" stroke-dasharray="3"/></g><g transform="translate(2,2) scale(1,1)"><path fill="none" stroke="#000000" d="M 198.73508522660606 152.6004281262057 L 188 155 L 197.2876051042531 160.89409801644422" stroke-miterlimit="10"/></g><g transform="translate(2,2) scale(1,1)"><g><path fill="none" stroke="none"/><text fill="#000000" stroke="none" font-family="Arial" font-size="13px" font-style="normal" font-weight="normal" text-decoration="none" x="468.5" y="217.5">«deploy»</text></g></g><g transform="translate(2,2) scale(1,1)"><path fill="none" stroke="#000000" d="M 765 155 L 768 192 L 400 192 L 188 155" stroke-miterlimit="10" stroke-dasharray="3"/></g><g transform="translate(2,2) scale(1,1)"><path fill="none" stroke="#000000" d="M 198.73508522660606 152.6004281262057 L 188 155 L 197.2876051042531 160.89409801644422" stroke-miterlimit="10"/></g><g transform="translate(2,2) scale(1,1)"><g><path fill="none" stroke="none"/><text fill="#000000" stroke="none" font-family="Arial" font-size="13px" font-style="normal" font-weight="normal" text-decoration="none" x="556.5" y="228.5">«deploy»</text></g></g><g transform="translate(2,2) scale(1,1)"><path fill="#C0C0C0" stroke="none" d="M 127 297 L 174.72998046875 297 L 174.72998046875 330 L 127 330" opacity="0.2"/></g><g transform="translate(2,2) scale(1,1)"><path fill="#C0C0C0" stroke="none" d="M 127 297 L 137 287 L 184.72998046875 287 L 174.72998046875 297" opacity="0.2"/></g><g transform="translate(2,2) scale(1,1)"><path fill="#C0C0C0" stroke="none" d="M 184.72998046875 287 L 174.72998046875 297 L 174.72998046875 330 L 184.72998046875 320" opacity="0.2"/></g><g transform="translate(2,2) scale(1,1)"><path fill="#ffffff" stroke="none" d="M 120 290 L 167.72998046875 290 L 167.72998046875 323 L 120 323"/></g><g transform="translate(2,2) scale(1,1)"><path fill="#ffffff" stroke="none" d="M 120 290 L 130 280 L 177.72998046875 280 L 167.72998046875 290"/></g><g transform="translate(2,2) scale(1,1)"><path fill="#ffffff" stroke="none" d="M 177.72998046875 280 L 167.72998046875 290 L 167.72998046875 323 L 177.72998046875 313"/></g><g transform="translate(2,2) scale(1,1)"><path fill="none" stroke="#000000" d="M 120 290 L 167.72998046875 290 L 167.72998046875 323 L 120 323 L 120 290" stroke-miterlimit="10"/></g><g transform="translate(2,2) scale(1,1)"><path fill="none" stroke="#000000" d="M 120 290 L 130 280 L 177.72998046875 280 L 167.72998046875 290 L 120 290" stroke-miterlimit="10"/></g><g transform="translate(2,2) scale(1,1)"><path fill="none" stroke="#000000" d="M 177.72998046875 280 L 167.72998046875 290 L 167.72998046875 323 L 177.72998046875 313 L 177.72998046875 280" stroke-miterlimit="10"/></g><g transform="translate(2,2) scale(1,1)"><g><path fill="none" stroke="none"/><text fill="#000000" stroke="none" font-family="Arial" font-size="13px" font-style="normal" font-weight="bold" text-decoration="none" x="132.450439453125" y="309.5">mvc</text></g></g><g transform="translate(2,2) scale(1,1)"><path fill="none" stroke="#000000" d="M 119 302 L 84 302" stroke-miterlimit="10" stroke-dasharray="3"/></g><g transform="translate(2,2) scale(1,1)"><path fill="none" stroke="#000000" d="M 94.16267485762415 297.790482243984 L 84 302 L 94.16267485762415 306.209517756016" stroke-miterlimit="10"/></g><g transform="translate(2,2) scale(1,1)"><g><path fill="none" stroke="none"/><text fill="#000000" stroke="none" font-family="Arial" font-size="13px" font-style="normal" font-weight="normal" text-decoration="none" x="73.5" y="338.5">«deploy»</text></g></g><g transform="translate(2,2) scale(1,1)"><path fill="#C0C0C0" stroke="none" d="M 351.540380859375 279 L 378.980380859375 279 L 390.74038085937497 290.76 L 390.74038085937497 328 L 351.540380859375 328" opacity="0.2"/></g><g transform="translate(2,2) scale(1,1)"><path fill="#ffffff" stroke="none" d="M 344.540380859375 272 L 371.98038085937503 272 L 383.740380859375 283.76 L 383.740380859375 321 L 344.540380859375 321"/></g><g transform="translate(2,2) scale(1,1)"><path fill="none" stroke="#000000" d="M 344.540380859375 272 L 371.98038085937503 272 L 383.740380859375 283.76 L 383.740380859375 321 L 344.540380859375 321 L 344.540380859375 272" stroke-miterlimit="10"/></g><g transform="translate(2,2) scale(1,1)"><path fill="none" stroke="#000000" d="M 371.98038085937503 272 L 371.98038085937503 283.76 L 383.740380859375 283.76 L 371.98038085937503 272" stroke-miterlimit="10"/></g><g transform="translate(2,2) scale(1,1)"><g><path fill="none" stroke="none"/><text fill="#000000" stroke="none" font-family="Arial" font-size="13px" font-style="normal" font-weight="bold" text-decoration="none" x="312.1181640625" y="340.5">ObserverInterface</text></g></g><g transform="translate(2,2) scale(1,1)"><path fill="#C0C0C0" stroke="none" d="M 457.751318359375 271 L 485.191318359375 271 L 496.95131835937497 282.76 L 496.95131835937497 320 L 457.751318359375 320" opacity="0.2"/></g><g transform="translate(2,2) scale(1,1)"><path fill="#ffffff" stroke="none" d="M 450.751318359375 264 L 478.19131835937503 264 L 489.951318359375 275.76 L 489.951318359375 313 L 450.751318359375 313"/></g><g transform="translate(2,2) scale(1,1)"><path fill="none" stroke="#000000" d="M 450.751318359375 264 L 478.19131835937503 264 L 489.951318359375 275.76 L 489.951318359375 313 L 450.751318359375 313 L 450.751318359375 264" stroke-miterlimit="10"/></g><g transform="translate(2,2) scale(1,1)"><path fill="none" stroke="#000000" d="M 478.19131835937503 264 L 478.19131835937503 275.76 L 489.951318359375 275.76 L 478.19131835937503 264" stroke-miterlimit="10"/></g><g transform="translate(2,2) scale(1,1)"><g><path fill="none" stroke="none"/><text fill="#000000" stroke="none" font-family="Arial" font-size="13px" font-style="normal" font-weight="bold" text-decoration="none" x="424.464111328125" y="332.5">subjectInterface</text></g></g><g transform="translate(2,2) scale(1,1)"><path fill="#C0C0C0" stroke="none" d="M 241.744970703125 287 L 269.18497070312503 287 L 280.944970703125 298.76 L 280.944970703125 336 L 241.744970703125 336" opacity="0.2"/></g><g transform="translate(2,2) scale(1,1)"><path fill="#ffffff" stroke="none" d="M 234.74497070312498 280 L 262.18497070312503 280 L 273.944970703125 291.76 L 273.944970703125 329 L 234.74497070312498 329"/></g><g transform="translate(2,2) scale(1,1)"><path fill="none" stroke="#000000" d="M 234.74497070312498 280 L 262.18497070312503 280 L 273.944970703125 291.76 L 273.944970703125 329 L 234.74497070312498 329 L 234.74497070312498 280" stroke-miterlimit="10"/></g><g transform="translate(2,2) scale(1,1)"><path fill="none" stroke="#000000" d="M 262.18497070312503 280 L 262.18497070312503 291.76 L 273.944970703125 291.76 L 262.18497070312503 280" stroke-miterlimit="10"/></g><g transform="translate(2,2) scale(1,1)"><g><path fill="none" stroke="none"/><text fill="#000000" stroke="none" font-family="Arial" font-size="13px" font-style="normal" font-weight="bold" text-decoration="none" x="208.82275390625" y="348.5">AbstractSubject</text></g></g><g transform="translate(2,2) scale(1,1)"><path fill="none" stroke="#000000" d="M 256 355 L 256 360 L 180 319" stroke-miterlimit="10" stroke-dasharray="3"/></g><g transform="translate(2,2) scale(1,1)"><path fill="none" stroke="#000000" d="M 190.9427977960452 320.12034655123693 L 180 319 L 186.94552188307816 327.52993117039534" stroke-miterlimit="10"/></g><g transform="translate(2,2) scale(1,1)"><g><path fill="none" stroke="none"/><text fill="#000000" stroke="none" font-family="Arial" font-size="13px" font-style="normal" font-weight="normal" text-decoration="none" x="214.5" y="392.5">«deploy»</text></g></g><g transform="translate(2,2) scale(1,1)"><path fill="none" stroke="#000000" d="M 367 347 L 368 360 L 256 360 L 180 319" stroke-miterlimit="10" stroke-dasharray="3"/></g><g transform="translate(2,2) scale(1,1)"><path fill="none" stroke="#000000" d="M 190.9427977960452 320.12034655123693 L 180 319 L 186.94552188307816 327.52993117039534" stroke-miterlimit="10"/></g><g transform="translate(2,2) scale(1,1)"><g><path fill="none" stroke="none"/><text fill="#000000" stroke="none" font-family="Arial" font-size="13px" font-style="normal" font-weight="normal" text-decoration="none" x="284.5" y="396.5">«deploy»</text></g></g><g transform="translate(2,2) scale(1,1)"><path fill="none" stroke="#000000" d="M 471 339 L 472 360 L 256 360 L 180 319" stroke-miterlimit="10" stroke-dasharray="3"/></g><g transform="translate(2,2) scale(1,1)"><path fill="none" stroke="#000000" d="M 190.9427977960452 320.12034655123693 L 180 319 L 186.94552188307816 327.52993117039534" stroke-miterlimit="10"/></g><g transform="translate(2,2) scale(1,1)"><path fill="#C0C0C0" stroke="none" d="M 154.2681640625 383 L 181.70816406250003 383 L 193.46816406250002 394.76 L 193.46816406250002 432 L 154.2681640625 432" opacity="0.2"/></g><g transform="translate(2,2) scale(1,1)"><path fill="#ffffff" stroke="none" d="M 147.26816406249998 376 L 174.7081640625 376 L 186.46816406250002 387.76 L 186.46816406250002 425 L 147.26816406249998 425"/></g><g transform="translate(2,2) scale(1,1)"><path fill="none" stroke="#000000" d="M 147.26816406249998 376 L 174.7081640625 376 L 186.46816406250002 387.76 L 186.46816406250002 425 L 147.26816406249998 425 L 147.26816406249998 376" stroke-miterlimit="10"/></g><g transform="translate(2,2) scale(1,1)"><path fill="none" stroke="#000000" d="M 174.7081640625 376 L 174.7081640625 387.76 L 186.46816406250002 387.76 L 174.7081640625 376" stroke-miterlimit="10"/></g><g transform="translate(2,2) scale(1,1)"><g><path fill="none" stroke="none"/><text fill="#000000" stroke="none" font-family="Arial" font-size="13px" font-style="normal" font-weight="bold" text-decoration="none" x="145.543212890625" y="444.5">api.php</text></g></g><g transform="translate(2,2) scale(1,1)"><path fill="none" stroke="#000000" d="M 135 418 L 92 425" stroke-miterlimit="10" stroke-dasharray="3"/></g><g transform="translate(2,2) scale(1,1)"><path fill="none" stroke="#000000" d="M 101.35426716649354 419.2122814704012 L 92 425 L 102.70700076633658 427.5219307265799" stroke-miterlimit="10"/></g><g transform="translate(2,2) scale(1,1)"><g><path fill="none" stroke="none"/><text fill="#000000" stroke="none" font-family="Arial" font-size="13px" font-style="normal" font-weight="normal" text-decoration="none" x="100.5" y="441.5">+use</text></g></g><g transform="translate(2,2) scale(1,1)"><g><path fill="none" stroke="none"/><text fill="#000000" stroke="none" font-family="Arial" font-size="13px" font-style="normal" font-weight="normal" text-decoration="none" x="91.5" y="456.5">«deploy»</text></g></g><g transform="translate(2,2) scale(1,1)"><path fill="#C0C0C0" stroke="none" d="M 247 689 L 317.130859375 689 L 317.130859375 722 L 247 722" opacity="0.2"/></g><g transform="translate(2,2) scale(1,1)"><path fill="#C0C0C0" stroke="none" d="M 247 689 L 257 679 L 327.130859375 679 L 317.130859375 689" opacity="0.2"/></g><g transform="translate(2,2) scale(1,1)"><path fill="#C0C0C0" stroke="none" d="M 327.130859375 679 L 317.130859375 689 L 317.130859375 722 L 327.130859375 712" opacity="0.2"/></g><g transform="translate(2,2) scale(1,1)"><path fill="#ffffff" stroke="none" d="M 240 682 L 310.130859375 682 L 310.130859375 715 L 240 715"/></g><g transform="translate(2,2) scale(1,1)"><path fill="#ffffff" stroke="none" d="M 240 682 L 250 672 L 320.130859375 672 L 310.130859375 682"/></g><g transform="translate(2,2) scale(1,1)"><path fill="#ffffff" stroke="none" d="M 320.130859375 672 L 310.130859375 682 L 310.130859375 715 L 320.130859375 705"/></g><g transform="translate(2,2) scale(1,1)"><path fill="none" stroke="#000000" d="M 240 682 L 310.130859375 682 L 310.130859375 715 L 240 715 L 240 682" stroke-miterlimit="10"/></g><g transform="translate(2,2) scale(1,1)"><path fill="none" stroke="#000000" d="M 240 682 L 250 672 L 320.130859375 672 L 310.130859375 682 L 240 682" stroke-miterlimit="10"/></g><g transform="translate(2,2) scale(1,1)"><path fill="none" stroke="#000000" d="M 320.130859375 672 L 310.130859375 682 L 310.130859375 715 L 320.130859375 705 L 320.130859375 672" stroke-miterlimit="10"/></g><g transform="translate(2,2) scale(1,1)"><g><path fill="none" stroke="none"/><text fill="#000000" stroke="none" font-family="Arial" font-size="13px" font-style="normal" font-weight="bold" text-decoration="none" x="247.0263671875" y="701.5">composer</text></g></g><g transform="translate(2,2) scale(1,1)"><path fill="#C0C0C0" stroke="none" d="M 183 689 L 230.72998046875 689 L 230.72998046875 722 L 183 722" opacity="0.2"/></g><g transform="translate(2,2) scale(1,1)"><path fill="#C0C0C0" stroke="none" d="M 183 689 L 193 679 L 240.72998046875 679 L 230.72998046875 689" opacity="0.2"/></g><g transform="translate(2,2) scale(1,1)"><path fill="#C0C0C0" stroke="none" d="M 240.72998046875 679 L 230.72998046875 689 L 230.72998046875 722 L 240.72998046875 712" opacity="0.2"/></g><g transform="translate(2,2) scale(1,1)"><path fill="#ffffff" stroke="none" d="M 176 682 L 223.72998046875 682 L 223.72998046875 715 L 176 715"/></g><g transform="translate(2,2) scale(1,1)"><path fill="#ffffff" stroke="none" d="M 176 682 L 186 672 L 233.72998046875 672 L 223.72998046875 682"/></g><g transform="translate(2,2) scale(1,1)"><path fill="#ffffff" stroke="none" d="M 233.72998046875 672 L 223.72998046875 682 L 223.72998046875 715 L 233.72998046875 705"/></g><g transform="translate(2,2) scale(1,1)"><path fill="none" stroke="#000000" d="M 176 682 L 223.72998046875 682 L 223.72998046875 715 L 176 715 L 176 682" stroke-miterlimit="10"/></g><g transform="translate(2,2) scale(1,1)"><path fill="none" stroke="#000000" d="M 176 682 L 186 672 L 233.72998046875 672 L 223.72998046875 682 L 176 682" stroke-miterlimit="10"/></g><g transform="translate(2,2) scale(1,1)"><path fill="none" stroke="#000000" d="M 233.72998046875 672 L 223.72998046875 682 L 223.72998046875 715 L 233.72998046875 705 L 233.72998046875 672" stroke-miterlimit="10"/></g><g transform="translate(2,2) scale(1,1)"><g><path fill="none" stroke="none"/><text fill="#000000" stroke="none" font-family="Arial" font-size="13px" font-style="normal" font-weight="bold" text-decoration="none" x="191.33544921875" y="701.5">psr</text></g></g><g transform="translate(2,2) scale(1,1)"><path fill="#C0C0C0" stroke="none" d="M 425.778662109375 551 L 453.218662109375 551 L 464.97866210937497 562.76 L 464.97866210937497 600 L 425.778662109375 600" opacity="0.2"/></g><g transform="translate(2,2) scale(1,1)"><path fill="#ffffff" stroke="none" d="M 418.778662109375 544 L 446.21866210937503 544 L 457.978662109375 555.76 L 457.978662109375 593 L 418.778662109375 593"/></g><g transform="translate(2,2) scale(1,1)"><path fill="none" stroke="#000000" d="M 418.778662109375 544 L 446.21866210937503 544 L 457.978662109375 555.76 L 457.978662109375 593 L 418.778662109375 593 L 418.778662109375 544" stroke-miterlimit="10"/></g><g transform="translate(2,2) scale(1,1)"><path fill="none" stroke="#000000" d="M 446.21866210937503 544 L 446.21866210937503 555.76 L 457.978662109375 555.76 L 446.21866210937503 544" stroke-miterlimit="10"/></g><g transform="translate(2,2) scale(1,1)"><g><path fill="none" stroke="none"/><text fill="#000000" stroke="none" font-family="Arial" font-size="13px" font-style="normal" font-weight="bold" text-decoration="none" x="400.0673828125" y="612.5">Autoload.php</text></g></g><g transform="translate(2,2) scale(1,1)"><path fill="#C0C0C0" stroke="none" d="M 463 689 L 510.72998046875 689 L 510.72998046875 722 L 463 722" opacity="0.2"/></g><g transform="translate(2,2) scale(1,1)"><path fill="#C0C0C0" stroke="none" d="M 463 689 L 473 679 L 520.72998046875 679 L 510.72998046875 689" opacity="0.2"/></g><g transform="translate(2,2) scale(1,1)"><path fill="#C0C0C0" stroke="none" d="M 520.72998046875 679 L 510.72998046875 689 L 510.72998046875 722 L 520.72998046875 712" opacity="0.2"/></g><g transform="translate(2,2) scale(1,1)"><path fill="#ffffff" stroke="none" d="M 456 682 L 503.72998046875 682 L 503.72998046875 715 L 456 715"/></g><g transform="translate(2,2) scale(1,1)"><path fill="#ffffff" stroke="none" d="M 456 682 L 466 672 L 513.72998046875 672 L 503.72998046875 682"/></g><g transform="translate(2,2) scale(1,1)"><path fill="#ffffff" stroke="none" d="M 513.72998046875 672 L 503.72998046875 682 L 503.72998046875 715 L 513.72998046875 705"/></g><g transform="translate(2,2) scale(1,1)"><path fill="none" stroke="#000000" d="M 456 682 L 503.72998046875 682 L 503.72998046875 715 L 456 715 L 456 682" stroke-miterlimit="10"/></g><g transform="translate(2,2) scale(1,1)"><path fill="none" stroke="#000000" d="M 456 682 L 466 672 L 513.72998046875 672 L 503.72998046875 682 L 456 682" stroke-miterlimit="10"/></g><g transform="translate(2,2) scale(1,1)"><path fill="none" stroke="#000000" d="M 513.72998046875 672 L 503.72998046875 682 L 503.72998046875 715 L 513.72998046875 705 L 513.72998046875 672" stroke-miterlimit="10"/></g><g transform="translate(2,2) scale(1,1)"><g><path fill="none" stroke="none"/><text fill="#000000" stroke="none" font-family="Arial" font-size="13px" font-style="normal" font-weight="bold" text-decoration="none" x="471.69091796875" y="701.5">bin</text></g></g><g transform="translate(2,2) scale(1,1)"><path fill="#C0C0C0" stroke="none" d="M 791 545 L 850.28271484375 545 L 850.28271484375 578 L 791 578" opacity="0.2"/></g><g transform="translate(2,2) scale(1,1)"><path fill="#C0C0C0" stroke="none" d="M 791 545 L 801 535 L 860.28271484375 535 L 850.28271484375 545" opacity="0.2"/></g><g transform="translate(2,2) scale(1,1)"><path fill="#C0C0C0" stroke="none" d="M 860.28271484375 535 L 850.28271484375 545 L 850.28271484375 578 L 860.28271484375 568" opacity="0.2"/></g><g transform="translate(2,2) scale(1,1)"><path fill="#ffffff" stroke="none" d="M 784 538 L 843.28271484375 538 L 843.28271484375 571 L 784 571"/></g><g transform="translate(2,2) scale(1,1)"><path fill="#ffffff" stroke="none" d="M 784 538 L 794 528 L 853.28271484375 528 L 843.28271484375 538"/></g><g transform="translate(2,2) scale(1,1)"><path fill="#ffffff" stroke="none" d="M 853.28271484375 528 L 843.28271484375 538 L 843.28271484375 571 L 853.28271484375 561"/></g><g transform="translate(2,2) scale(1,1)"><path fill="none" stroke="#000000" d="M 784 538 L 843.28271484375 538 L 843.28271484375 571 L 784 571 L 784 538" stroke-miterlimit="10"/></g><g transform="translate(2,2) scale(1,1)"><path fill="none" stroke="#000000" d="M 784 538 L 794 528 L 853.28271484375 528 L 843.28271484375 538 L 784 538" stroke-miterlimit="10"/></g><g transform="translate(2,2) scale(1,1)"><path fill="none" stroke="#000000" d="M 853.28271484375 528 L 843.28271484375 538 L 843.28271484375 571 L 853.28271484375 561 L 853.28271484375 528" stroke-miterlimit="10"/></g><g transform="translate(2,2) scale(1,1)"><g><path fill="none" stroke="none"/><text fill="#000000" stroke="none" font-family="Arial" font-size="13px" font-style="normal" font-weight="bold" text-decoration="none" x="791.016845703125" y="557.5">doctrine</text></g></g><g transform="translate(2,2) scale(1,1)"><path fill="#C0C0C0" stroke="none" d="M 791 641 L 851.03173828125 641 L 851.03173828125 674 L 791 674" opacity="0.2"/></g><g transform="translate(2,2) scale(1,1)"><path fill="#C0C0C0" stroke="none" d="M 791 641 L 801 631 L 861.03173828125 631 L 851.03173828125 641" opacity="0.2"/></g><g transform="translate(2,2) scale(1,1)"><path fill="#C0C0C0" stroke="none" d="M 861.03173828125 631 L 851.03173828125 641 L 851.03173828125 674 L 861.03173828125 664" opacity="0.2"/></g><g transform="translate(2,2) scale(1,1)"><path fill="#ffffff" stroke="none" d="M 784 634 L 844.03173828125 634 L 844.03173828125 667 L 784 667"/></g><g transform="translate(2,2) scale(1,1)"><path fill="#ffffff" stroke="none" d="M 784 634 L 794 624 L 854.03173828125 624 L 844.03173828125 634"/></g><g transform="translate(2,2) scale(1,1)"><path fill="#ffffff" stroke="none" d="M 854.03173828125 624 L 844.03173828125 634 L 844.03173828125 667 L 854.03173828125 657"/></g><g transform="translate(2,2) scale(1,1)"><path fill="none" stroke="#000000" d="M 784 634 L 844.03173828125 634 L 844.03173828125 667 L 784 667 L 784 634" stroke-miterlimit="10"/></g><g transform="translate(2,2) scale(1,1)"><path fill="none" stroke="#000000" d="M 784 634 L 794 624 L 854.03173828125 624 L 844.03173828125 634 L 784 634" stroke-miterlimit="10"/></g><g transform="translate(2,2) scale(1,1)"><path fill="none" stroke="#000000" d="M 854.03173828125 624 L 844.03173828125 634 L 844.03173828125 667 L 854.03173828125 657 L 854.03173828125 624" stroke-miterlimit="10"/></g><g transform="translate(2,2) scale(1,1)"><g><path fill="none" stroke="none"/><text fill="#000000" stroke="none" font-family="Arial" font-size="13px" font-style="normal" font-weight="bold" text-decoration="none" x="790.67724609375" y="653.5">myclabs</text></g></g><g transform="translate(2,2) scale(1,1)"><path fill="#C0C0C0" stroke="none" d="M 799 593 L 851.052734375 593 L 851.052734375 626 L 799 626" opacity="0.2"/></g><g transform="translate(2,2) scale(1,1)"><path fill="#C0C0C0" stroke="none" d="M 799 593 L 809 583 L 861.052734375 583 L 851.052734375 593" opacity="0.2"/></g><g transform="translate(2,2) scale(1,1)"><path fill="#C0C0C0" stroke="none" d="M 861.052734375 583 L 851.052734375 593 L 851.052734375 626 L 861.052734375 616" opacity="0.2"/></g><g transform="translate(2,2) scale(1,1)"><path fill="#ffffff" stroke="none" d="M 792 586 L 844.052734375 586 L 844.052734375 619 L 792 619"/></g><g transform="translate(2,2) scale(1,1)"><path fill="#ffffff" stroke="none" d="M 792 586 L 802 576 L 854.052734375 576 L 844.052734375 586"/></g><g transform="translate(2,2) scale(1,1)"><path fill="#ffffff" stroke="none" d="M 854.052734375 576 L 844.052734375 586 L 844.052734375 619 L 854.052734375 609"/></g><g transform="translate(2,2) scale(1,1)"><path fill="none" stroke="#000000" d="M 792 586 L 844.052734375 586 L 844.052734375 619 L 792 619 L 792 586" stroke-miterlimit="10"/></g><g transform="translate(2,2) scale(1,1)"><path fill="none" stroke="#000000" d="M 792 586 L 802 576 L 854.052734375 576 L 844.052734375 586 L 792 586" stroke-miterlimit="10"/></g><g transform="translate(2,2) scale(1,1)"><path fill="none" stroke="#000000" d="M 854.052734375 576 L 844.052734375 586 L 844.052734375 619 L 854.052734375 609 L 854.052734375 576" stroke-miterlimit="10"/></g><g transform="translate(2,2) scale(1,1)"><g><path fill="none" stroke="none"/><text fill="#000000" stroke="none" font-family="Arial" font-size="13px" font-style="normal" font-weight="bold" text-decoration="none" x="798.293212890625" y="605.5">phar-io</text></g></g><g transform="translate(2,2) scale(1,1)"><path fill="#C0C0C0" stroke="none" d="M 335 689 L 441.9345703125 689 L 441.9345703125 722 L 335 722" opacity="0.2"/></g><g transform="translate(2,2) scale(1,1)"><path fill="#C0C0C0" stroke="none" d="M 335 689 L 345 679 L 451.9345703125 679 L 441.9345703125 689" opacity="0.2"/></g><g transform="translate(2,2) scale(1,1)"><path fill="#C0C0C0" stroke="none" d="M 451.9345703125 679 L 441.9345703125 689 L 441.9345703125 722 L 451.9345703125 712" opacity="0.2"/></g><g transform="translate(2,2) scale(1,1)"><path fill="#ffffff" stroke="none" d="M 328 682 L 434.9345703125 682 L 434.9345703125 715 L 328 715"/></g><g transform="translate(2,2) scale(1,1)"><path fill="#ffffff" stroke="none" d="M 328 682 L 338 672 L 444.9345703125 672 L 434.9345703125 682"/></g><g transform="translate(2,2) scale(1,1)"><path fill="#ffffff" stroke="none" d="M 444.9345703125 672 L 434.9345703125 682 L 434.9345703125 715 L 444.9345703125 705"/></g><g transform="translate(2,2) scale(1,1)"><path fill="none" stroke="#000000" d="M 328 682 L 434.9345703125 682 L 434.9345703125 715 L 328 715 L 328 682" stroke-miterlimit="10"/></g><g transform="translate(2,2) scale(1,1)"><path fill="none" stroke="#000000" d="M 328 682 L 338 672 L 444.9345703125 672 L 434.9345703125 682 L 328 682" stroke-miterlimit="10"/></g><g transform="translate(2,2) scale(1,1)"><path fill="none" stroke="#000000" d="M 444.9345703125 672 L 434.9345703125 682 L 434.9345703125 715 L 444.9345703125 705 L 444.9345703125 672" stroke-miterlimit="10"/></g><g transform="translate(2,2) scale(1,1)"><g><path fill="none" stroke="none"/><text fill="#000000" stroke="none" font-family="Arial" font-size="13px" font-style="normal" font-weight="bold" text-decoration="none" x="336.79736328125" y="701.5">phpdocumentor</text></g></g><g transform="translate(2,2) scale(1,1)"><path fill="#C0C0C0" stroke="none" d="M 623 689 L 684.45361328125 689 L 684.45361328125 722 L 623 722" opacity="0.2"/></g><g transform="translate(2,2) scale(1,1)"><path fill="#C0C0C0" stroke="none" d="M 623 689 L 633 679 L 694.45361328125 679 L 684.45361328125 689" opacity="0.2"/></g><g transform="translate(2,2) scale(1,1)"><path fill="#C0C0C0" stroke="none" d="M 694.45361328125 679 L 684.45361328125 689 L 684.45361328125 722 L 694.45361328125 712" opacity="0.2"/></g><g transform="translate(2,2) scale(1,1)"><path fill="#ffffff" stroke="none" d="M 616 682 L 677.45361328125 682 L 677.45361328125 715 L 616 715"/></g><g transform="translate(2,2) scale(1,1)"><path fill="#ffffff" stroke="none" d="M 616 682 L 626 672 L 687.45361328125 672 L 677.45361328125 682"/></g><g transform="translate(2,2) scale(1,1)"><path fill="#ffffff" stroke="none" d="M 687.45361328125 672 L 677.45361328125 682 L 677.45361328125 715 L 687.45361328125 705"/></g><g transform="translate(2,2) scale(1,1)"><path fill="none" stroke="#000000" d="M 616 682 L 677.45361328125 682 L 677.45361328125 715 L 616 715 L 616 682" stroke-miterlimit="10"/></g><g transform="translate(2,2) scale(1,1)"><path fill="none" stroke="#000000" d="M 616 682 L 626 672 L 687.45361328125 672 L 677.45361328125 682 L 616 682" stroke-miterlimit="10"/></g><g transform="translate(2,2) scale(1,1)"><path fill="none" stroke="#000000" d="M 687.45361328125 672 L 677.45361328125 682 L 677.45361328125 715 L 687.45361328125 705 L 687.45361328125 672" stroke-miterlimit="10"/></g><g transform="translate(2,2) scale(1,1)"><g><path fill="none" stroke="none"/><text fill="#000000" stroke="none" font-family="Arial" font-size="13px" font-style="normal" font-weight="bold" text-decoration="none" x="622.65185546875" y="701.5">phpspec</text></g></g><g transform="translate(2,2) scale(1,1)"><path fill="#C0C0C0" stroke="none" d="M 703 689 L 758.6455078125 689 L 758.6455078125 722 L 703 722" opacity="0.2"/></g><g transform="translate(2,2) scale(1,1)"><path fill="#C0C0C0" stroke="none" d="M 703 689 L 713 679 L 768.6455078125 679 L 758.6455078125 689" opacity="0.2"/></g><g transform="translate(2,2) scale(1,1)"><path fill="#C0C0C0" stroke="none" d="M 768.6455078125 679 L 758.6455078125 689 L 758.6455078125 722 L 768.6455078125 712" opacity="0.2"/></g><g transform="translate(2,2) scale(1,1)"><path fill="#ffffff" stroke="none" d="M 696 682 L 751.6455078125 682 L 751.6455078125 715 L 696 715"/></g><g transform="translate(2,2) scale(1,1)"><path fill="#ffffff" stroke="none" d="M 696 682 L 706 672 L 761.6455078125 672 L 751.6455078125 682"/></g><g transform="translate(2,2) scale(1,1)"><path fill="#ffffff" stroke="none" d="M 761.6455078125 672 L 751.6455078125 682 L 751.6455078125 715 L 761.6455078125 705"/></g><g transform="translate(2,2) scale(1,1)"><path fill="none" stroke="#000000" d="M 696 682 L 751.6455078125 682 L 751.6455078125 715 L 696 715 L 696 682" stroke-miterlimit="10"/></g><g transform="translate(2,2) scale(1,1)"><path fill="none" stroke="#000000" d="M 696 682 L 706 672 L 761.6455078125 672 L 751.6455078125 682 L 696 682" stroke-miterlimit="10"/></g><g transform="translate(2,2) scale(1,1)"><path fill="none" stroke="#000000" d="M 761.6455078125 672 L 751.6455078125 682 L 751.6455078125 715 L 761.6455078125 705 L 761.6455078125 672" stroke-miterlimit="10"/></g><g transform="translate(2,2) scale(1,1)"><g><path fill="none" stroke="none"/><text fill="#000000" stroke="none" font-family="Arial" font-size="13px" font-style="normal" font-weight="bold" text-decoration="none" x="702.997802734375" y="701.5">phpunit</text></g></g><g transform="translate(2,2) scale(1,1)"><path fill="#C0C0C0" stroke="none" d="M 527 689 L 603 689 L 603 722 L 527 722" opacity="0.2"/></g><g transform="translate(2,2) scale(1,1)"><path fill="#C0C0C0" stroke="none" d="M 527 689 L 537 679 L 613 679 L 603 689" opacity="0.2"/></g><g transform="translate(2,2) scale(1,1)"><path fill="#C0C0C0" stroke="none" d="M 613 679 L 603 689 L 603 722 L 613 712" opacity="0.2"/></g><g transform="translate(2,2) scale(1,1)"><path fill="#ffffff" stroke="none" d="M 520 682 L 596 682 L 596 715 L 520 715"/></g><g transform="translate(2,2) scale(1,1)"><path fill="#ffffff" stroke="none" d="M 520 682 L 530 672 L 606 672 L 596 682"/></g><g transform="translate(2,2) scale(1,1)"><path fill="#ffffff" stroke="none" d="M 606 672 L 596 682 L 596 715 L 606 705"/></g><g transform="translate(2,2) scale(1,1)"><path fill="none" stroke="#000000" d="M 520 682 L 596 682 L 596 715 L 520 715 L 520 682" stroke-miterlimit="10"/></g><g transform="translate(2,2) scale(1,1)"><path fill="none" stroke="#000000" d="M 520 682 L 530 672 L 606 672 L 596 682 L 520 682" stroke-miterlimit="10"/></g><g transform="translate(2,2) scale(1,1)"><path fill="none" stroke="#000000" d="M 606 672 L 596 682 L 596 715 L 606 705 L 606 672" stroke-miterlimit="10"/></g><g transform="translate(2,2) scale(1,1)"><g><path fill="none" stroke="none"/><text fill="#000000" stroke="none" font-family="Arial" font-size="13px" font-style="normal" font-weight="bold" text-decoration="none" x="530.675048828125" y="701.5">sebastian</text></g></g><g transform="translate(2,2) scale(1,1)"><path fill="#C0C0C0" stroke="none" d="M 775 689 L 850.90087890625 689 L 850.90087890625 722 L 775 722" opacity="0.2"/></g><g transform="translate(2,2) scale(1,1)"><path fill="#C0C0C0" stroke="none" d="M 775 689 L 785 679 L 860.90087890625 679 L 850.90087890625 689" opacity="0.2"/></g><g transform="translate(2,2) scale(1,1)"><path fill="#C0C0C0" stroke="none" d="M 860.90087890625 679 L 850.90087890625 689 L 850.90087890625 722 L 860.90087890625 712" opacity="0.2"/></g><g transform="translate(2,2) scale(1,1)"><path fill="#ffffff" stroke="none" d="M 768 682 L 843.90087890625 682 L 843.90087890625 715 L 768 715"/></g><g transform="translate(2,2) scale(1,1)"><path fill="#ffffff" stroke="none" d="M 768 682 L 778 672 L 853.90087890625 672 L 843.90087890625 682"/></g><g transform="translate(2,2) scale(1,1)"><path fill="#ffffff" stroke="none" d="M 853.90087890625 672 L 843.90087890625 682 L 843.90087890625 715 L 853.90087890625 705"/></g><g transform="translate(2,2) scale(1,1)"><path fill="none" stroke="#000000" d="M 768 682 L 843.90087890625 682 L 843.90087890625 715 L 768 715 L 768 682" stroke-miterlimit="10"/></g><g transform="translate(2,2) scale(1,1)"><path fill="none" stroke="#000000" d="M 768 682 L 778 672 L 853.90087890625 672 L 843.90087890625 682 L 768 682" stroke-miterlimit="10"/></g><g transform="translate(2,2) scale(1,1)"><path fill="none" stroke="#000000" d="M 853.90087890625 672 L 843.90087890625 682 L 843.90087890625 715 L 853.90087890625 705 L 853.90087890625 672" stroke-miterlimit="10"/></g><g transform="translate(2,2) scale(1,1)"><g><path fill="none" stroke="none"/><text fill="#000000" stroke="none" font-family="Arial" font-size="13px" font-style="normal" font-weight="bold" text-decoration="none" x="774.661376953125" y="701.5">webmozart</text></g></g><g transform="translate(2,2) scale(1,1)"><path fill="#ffffff" stroke="none" d="M 576 272 L 788 272 L 798 282 L 798 454 L 576 454 L 576 272"/></g><g transform="translate(2,2) scale(1,1)"><path fill="none" stroke="#000000" d="M 576 272 L 788 272 L 798 282 L 798 454 L 576 454 L 576 272 L 576 272" stroke-miterlimit="10"/></g><g transform="translate(2,2) scale(1,1)"><path fill="none" stroke="#000000" d="M 788 272 L 788 282 L 798 282 L 788 272" stroke-miterlimit="10"/></g><g transform="translate(2,2) scale(1,1)"><g><path fill="none" stroke="none"/><text fill="#000000" stroke="none" font-family="Arial" font-size="13px" font-style="normal" font-weight="normal" text-decoration="none" x="581" y="290">This api provide an universal</text><text fill="#000000" stroke="none" font-family="Arial" font-size="13px" font-style="normal" font-weight="normal" text-decoration="none" x="581" y="303">package definition.</text></g></g><g transform="translate(2,2) scale(1,1)"><g><path fill="none" stroke="none"/></g></g><g transform="translate(2,2) scale(1,1)"><g><path fill="none" stroke="none"/></g></g><g transform="translate(2,2) scale(1,1)"><g><path fill="none" stroke="none"/><text fill="#000000" stroke="none" font-family="Arial" font-size="13px" font-style="normal" font-weight="normal" text-decoration="none" x="581" y="322">For a "package" input. the API is</text><text fill="#000000" stroke="none" font-family="Arial" font-size="13px" font-style="normal" font-weight="normal" text-decoration="none" x="581" y="335">going to find (using github</text><text fill="#000000" stroke="none" font-family="Arial" font-size="13px" font-style="normal" font-weight="normal" text-decoration="none" x="581" y="348">conversion) the full library</text><text fill="#000000" stroke="none" font-family="Arial" font-size="13px" font-style="normal" font-weight="normal" text-decoration="none" x="581" y="361">description. checking if it's tested</text><text fill="#000000" stroke="none" font-family="Arial" font-size="13px" font-style="normal" font-weight="normal" text-decoration="none" x="581" y="374">and distributed. requesting all over</text><text fill="#000000" stroke="none" font-family="Arial" font-size="13px" font-style="normal" font-weight="normal" text-decoration="none" x="581" y="387">the web (travis. npm. packagist).</text></g></g><g transform="translate(2,2) scale(1,1)"><g><path fill="none" stroke="none"/></g></g><g transform="translate(2,2) scale(1,1)"><path fill="none" stroke="#000000" d="M 60 109 L 54 279" stroke-miterlimit="10" stroke-dasharray="3"/></g><g transform="translate(2,2) scale(1,1)"><path fill="none" stroke="#000000" d="M 50.15156109159611 268.69517016306025 L 54 279 L 58.565357807558996 268.9921276942119" stroke-miterlimit="10"/></g><g transform="translate(2,2) scale(1,1)"><g><path fill="none" stroke="none"/><text fill="#000000" stroke="none" font-family="Arial" font-size="13px" font-style="normal" font-weight="normal" text-decoration="none" x="56.5" y="200.5">+use</text></g></g><g transform="translate(2,2) scale(1,1)"><path fill="none" stroke="#000000" d="M 61 109 L 61 407" stroke-miterlimit="10" stroke-dasharray="3"/></g><g transform="translate(2,2) scale(1,1)"><path fill="none" stroke="#000000" d="M 56.790482243984016 396.83732514237585 L 61 407 L 65.20951775601598 396.83732514237585" stroke-miterlimit="10"/></g><g transform="translate(2,2) scale(1,1)"><g><path fill="none" stroke="none"/><text fill="#000000" stroke="none" font-family="Arial" font-size="13px" font-style="normal" font-weight="normal" text-decoration="none" x="61.5" y="263.5">+use</text></g></g><g transform="translate(2,2) scale(1,1)"><path fill="none" stroke="#000000" d="M 92 444 L 169 479" stroke-miterlimit="10" stroke-dasharray="3"/></g><g transform="translate(2,2) scale(1,1)"><path fill="none" stroke="#000000" d="M 158.0063306467394 478.62685907330007 L 169 479 L 161.49015232979445 470.96245137057895" stroke-miterlimit="10"/></g></g></svg>
